<mxfile host="app.diagrams.net" modified="2021-06-09T07:31:24.908Z" agent="5.0 (Windows NT 10.0; WOW64) AppleWebKit/537.36 (KHTML, like Gecko) Chrome/72.0.3626.121 Safari/537.36" etag="4-bDj4bFtlnJRVdUPkPp" version="14.7.6" type="github">
  <diagram id="gxX4angruf3AOyrAFuu7" name="Page-1">
    <mxGraphModel dx="785" dy="486" grid="1" gridSize="10" guides="1" tooltips="1" connect="1" arrows="1" fold="1" page="1" pageScale="1" pageWidth="827" pageHeight="1169" math="0" shadow="0">
      <root>
        <mxCell id="0" />
        <mxCell id="1" parent="0" />
        <mxCell id="2OLkUS8ywqqW9sf56QYj-6" value="" style="shape=umlLifeline;participant=umlActor;perimeter=lifelinePerimeter;whiteSpace=wrap;html=1;container=1;collapsible=0;recursiveResize=0;verticalAlign=top;spacingTop=36;outlineConnect=0;" vertex="1" parent="1">
          <mxGeometry x="90" y="70" width="20" height="300" as="geometry" />
        </mxCell>
        <mxCell id="2OLkUS8ywqqW9sf56QYj-7" value="用户" style="text;html=1;align=center;verticalAlign=middle;resizable=0;points=[];autosize=1;strokeColor=none;" vertex="1" parent="1">
          <mxGeometry x="80" y="40" width="40" height="20" as="geometry" />
        </mxCell>
        <mxCell id="2OLkUS8ywqqW9sf56QYj-8" value="" style="html=1;points=[];perimeter=orthogonalPerimeter;" vertex="1" parent="1">
          <mxGeometry x="95" y="130" width="10" height="140" as="geometry" />
        </mxCell>
        <mxCell id="2OLkUS8ywqqW9sf56QYj-10" value="oauth-provider" style="shape=umlLifeline;perimeter=lifelinePerimeter;whiteSpace=wrap;html=1;container=1;collapsible=0;recursiveResize=0;outlineConnect=0;" vertex="1" parent="1">
          <mxGeometry x="260" y="70" width="100" height="300" as="geometry" />
        </mxCell>
        <mxCell id="2OLkUS8ywqqW9sf56QYj-15" value="" style="html=1;points=[];perimeter=orthogonalPerimeter;" vertex="1" parent="2OLkUS8ywqqW9sf56QYj-10">
          <mxGeometry x="45" y="130" width="10" height="60" as="geometry" />
        </mxCell>
        <mxCell id="2OLkUS8ywqqW9sf56QYj-16" value="&amp;nbsp; &amp;nbsp;2&amp;nbsp; 验证用户名、密码、&lt;br&gt;验证码信息" style="edgeStyle=orthogonalEdgeStyle;html=1;align=left;spacingLeft=2;endArrow=block;rounded=0;entryX=1;entryY=0;" edge="1" target="2OLkUS8ywqqW9sf56QYj-15" parent="2OLkUS8ywqqW9sf56QYj-10">
          <mxGeometry relative="1" as="geometry">
            <mxPoint x="50" y="110" as="sourcePoint" />
            <Array as="points">
              <mxPoint x="80" y="110" />
            </Array>
          </mxGeometry>
        </mxCell>
        <mxCell id="2OLkUS8ywqqW9sf56QYj-11" value="" style="html=1;points=[];perimeter=orthogonalPerimeter;" vertex="1" parent="1">
          <mxGeometry x="305" y="130" width="10" height="50" as="geometry" />
        </mxCell>
        <mxCell id="2OLkUS8ywqqW9sf56QYj-13" value="" style="endArrow=block;endFill=1;html=1;edgeStyle=orthogonalEdgeStyle;align=left;verticalAlign=top;" edge="1" parent="1">
          <mxGeometry x="-1" relative="1" as="geometry">
            <mxPoint x="105" y="150" as="sourcePoint" />
            <mxPoint x="300" y="150" as="targetPoint" />
          </mxGeometry>
        </mxCell>
        <mxCell id="2OLkUS8ywqqW9sf56QYj-14" value="1&amp;nbsp; 登录请求&lt;br&gt;（用户名、密码、验证码等信息）" style="edgeLabel;resizable=0;html=1;align=left;verticalAlign=bottom;" connectable="0" vertex="1" parent="2OLkUS8ywqqW9sf56QYj-13">
          <mxGeometry x="-1" relative="1" as="geometry" />
        </mxCell>
        <mxCell id="2OLkUS8ywqqW9sf56QYj-17" value="3&amp;nbsp; &amp;nbsp;验证失败" style="html=1;verticalAlign=bottom;endArrow=open;dashed=1;endSize=8;" edge="1" parent="1">
          <mxGeometry relative="1" as="geometry">
            <mxPoint x="300" y="220" as="sourcePoint" />
            <mxPoint x="110" y="220" as="targetPoint" />
          </mxGeometry>
        </mxCell>
      </root>
    </mxGraphModel>
  </diagram>
</mxfile>
